<?xml version="1.0" encoding="UTF-8"?>
<svg xmlns="http://www.w3.org/2000/svg" width="200" height="200" viewBox="0 0 200 200">
  <!-- Background circle (pin shape) -->
  <circle cx="100" cy="100" r="95" fill="#B19CD9" stroke="#000" stroke-width="2" />
  
  <!-- Jasmine's Palace -->
  <path d="M 40 140 L 40 80 L 160 80 L 160 140 Z" fill="#FFD700" />
  
  <!-- Palace domes -->
  <path d="M 60 80 Q 60 50 80 80" fill="#FFD700" />
  <path d="M 90 80 Q 90 30 110 80" fill="#FFD700" />
  <path d="M 120 80 Q 120 50 140 80" fill="#FFD700" />
  
  <!-- Palace dome tops -->
  <circle cx="70" cy="60" r="5" fill="#7B68EE" />
  <circle cx="100" cy="40" r="8" fill="#7B68EE" />
  <circle cx="130" cy="60" r="5" fill="#7B68EE" />
  
  <!-- Palace entrance -->
  <path d="M 90 140 L 90 100 L 110 100 L 110 140" fill="#7B68EE" />
  <path d="M 90 100 Q 100 80 110 100" fill="#7B68EE" />
  
  <!-- Windows -->
  <path d="M 60 110 Q 60 100 70 100 Q 70 110 60 110" fill="#7B68EE" />
  <path d="M 130 110 Q 130 100 140 100 Q 140 110 130 110" fill="#7B68EE" />
  
  <!-- Desert landscape -->
  <path d="M 30 140 Q 60 130 100 150 Q 140 130 170 140" fill="#F4A460" />
  
  <!-- Palm tree -->
  <rect x="50" y="120" width="5" height="20" fill="#8B4513" />
  <path d="M 40 120 Q 52.5 100 65 120" fill="#32CD32" />
  <path d="M 40 115 Q 52.5 95 65 115" fill="#32CD32" />
  <path d="M 40 125 Q 52.5 105 65 125" fill="#32CD32" />
  
  <!-- Magic carpet (small hint) -->
  <path d="M 130 130 Q 140 125 150 130" fill="#9932CC" />
  
  <!-- Text -->
  <text x="100" y="180" text-anchor="middle" font-family="Arial" font-size="14" font-weight="bold" fill="#000000">Jasmine Palace</text>
</svg>